<svg width="1200" height="600" viewBox="0 0 1200 600" fill="none" xmlns="http://www.w3.org/2000/svg"><defs><pattern id="thaiDots" patternUnits="userSpaceOnUse" width="20" height="20"><circle cx="10" cy="10" r="1" fill="#3b82f6" opacity="0.4"/></pattern></defs><rect width="1200" height="600" fill="#f8fafc"/><rect x="0" y="0" width="400" height="600" fill="#f8fafc"/><rect x="400" y="0" width="800" height="600" fill="url(#thaiDots)"/><path d="M400 80 Q500 180 600 320 T800 520" stroke="#1e40af" stroke-width="3" fill="none"/><g><rect x="420" y="120" width="8" height="12" fill="#6b7280"/><rect x="480" y="180" width="8" height="12" fill="#6b7280"/><rect x="540" y="240" width="8" height="12" fill="#6b7280"/><rect x="600" y="300" width="8" height="12" fill="#6b7280"/><rect x="660" y="360" width="8" height="12" fill="#6b7280"/><rect x="720" y="420" width="8" height="12" fill="#6b7280"/></g><g><polygon points="500,160 510,180 490,180" fill="#ef4444"/><polygon points="600,240 610,260 590,260" fill="#ef4444"/><polygon points="700,320 710,340 690,340" fill="#ef4444"/><polygon points="750,400 760,420 740,420" fill="#ef4444"/></g><g><circle cx="500" cy="200" r="4" fill="#3b82f6"/><circle cx="600" cy="280" r="4" fill="#3b82f6"/><circle cx="700" cy="360" r="4" fill="#3b82f6"/><circle cx="800" cy="440" r="4" fill="#3b82f6"/></g><path d="M0 520 Q200 500 400 520 T800 540 L1200 520 L1200 600 L0 600 Z" fill="#1e40af" opacity="0.3"/><path d="M0 0 Q200 20 400 0 T800 -20 L1200 0 L1200 80 L0 80 Z" fill="#1e40af" opacity="0.3"/><text x="200" y="40" fill="#1e293b" font-size="28" font-weight="bold">BURMA</text><text x="800" y="40" fill="#1e293b" font-size="28" font-weight="bold">THAILAND</text><text x="200" y="560" fill="#1e293b" font-size="18">Andaman Sea</text><text x="800" y="560" fill="#1e293b" font-size="18">Gulf of THAILAND</text><text x="500" y="100" fill="#1e293b" font-size="14">CHIANG MAI</text><text x="600" y="200" fill="#1e293b" font-size="14">MAE SOT</text><text x="800" y="380" fill="#1e293b" font-size="14">BANGKOK</text><text x="500" y="140" fill="#ef4444" font-size="12">IRC Mobile Healthcare</text><text x="600" y="220" fill="#ef4444" font-size="12">Mae Tao Clinic</text><text x="800" y="400" fill="#ef4444" font-size="12">JRS BANGKOK</text><circle cx="800" cy="440" r="60" fill="none" stroke="#ef4444" stroke-width="2" stroke-dasharray="5,5" opacity="0.6"/><text x="800" y="320" fill="#ef4444" font-size="12" text-anchor="middle">JRS Psychological Support</text></svg>
