<svg width="1200" height="600" viewBox="0 0 1200 600" fill="none" xmlns="http://www.w3.org/2000/svg"><defs><pattern id="myanmarThailandMap" patternUnits="userSpaceOnUse" width="1200" height="600"><rect width="1200" height="600" fill="#1E3A8A"/><!-- Myanmar-Thailand border --><path d="M150 100 Q300 200 450 300 T750 500" stroke="#3B82F6" stroke-width="4" opacity="0.8" fill="none"/><!-- Refugee camps (flags) --><g opacity="0.7"><rect x="200" y="120" width="12" height="18" fill="#F59E0B"/><rect x="300" y="180" width="12" height="18" fill="#F59E0B"/><rect x="400" y="240" width="12" height="18" fill="#F59E0B"/><rect x="500" y="300" width="12" height="18" fill="#F59E0B"/><rect x="600" y="360" width="12" height="18" fill="#F59E0B"/><rect x="700" y="420" width="12" height="18" fill="#F59E0B"/></g><!-- Medical facilities (triangles) --><g opacity="0.8"><polygon points="350,200 365,225 335,225" fill="#EF4444"/><polygon points="550,280 565,305 535,305" fill="#EF4444"/><polygon points="750,360 765,385 735,385" fill="#EF4444"/></g><!-- Cities --><g opacity="0.9"><circle cx="400" cy="250" r="8" fill="#60A5FA"/><circle cx="600" cy="350" r="8" fill="#60A5FA"/><circle cx="800" cy="450" r="8" fill="#60A5FA"/></g><!-- Water bodies --><path d="M0 500 Q200 480 400 500 T800 520 L1200 500 L1200 600 L0 600 Z" fill="#1E40AF" opacity="0.6"/><path d="M0 0 Q200 20 400 0 T800 -20 L1200 0 L1200 100 L0 100 Z" fill="#1E40AF" opacity="0.6"/></pattern></defs><rect width="1200" height="600" fill="url(#myanmarThailandMap)"/></svg>
