<svg width="1200" height="600" viewBox="0 0 1200 600" fill="none" xmlns="http://www.w3.org/2000/svg"><defs><pattern id="humanitarianMap" patternUnits="userSpaceOnUse" width="1200" height="600"><rect width="1200" height="600" fill="#0F172A"/><!-- Border line --><path d="M200 100 Q400 200 600 300 T1000 500" stroke="#1E40AF" stroke-width="2" opacity="0.4" fill="none"/><!-- Refugee camps (flags) --><g opacity="0.3"><rect x="150" y="120" width="8" height="12" fill="#F59E0B"/><rect x="250" y="180" width="8" height="12" fill="#F59E0B"/><rect x="350" y="240" width="8" height="12" fill="#F59E0B"/><rect x="450" y="300" width="8" height="12" fill="#F59E0B"/><rect x="550" y="360" width="8" height="12" fill="#F59E0B"/><rect x="650" y="420" width="8" height="12" fill="#F59E0B"/></g><!-- Medical facilities (triangles) --><g opacity="0.4"><polygon points="300,200 310,220 290,220" fill="#EF4444"/><polygon points="500,280 510,300 490,300" fill="#EF4444"/><polygon points="700,360 710,380 690,380" fill="#EF4444"/></g><!-- Cities --><g opacity="0.5"><circle cx="400" cy="250" r="4" fill="#60A5FA"/><circle cx="600" cy="350" r="4" fill="#60A5FA"/><circle cx="800" cy="450" r="4" fill="#60A5FA"/></g><!-- Water bodies --><path d="M0 500 Q200 480 400 500 T800 520 L1200 500 L1200 600 L0 600 Z" fill="#1E40AF" opacity="0.2"/></pattern></defs><rect width="1200" height="600" fill="url(#humanitarianMap)"/></svg>
