<svg width="1200" height="600" viewBox="0 0 1200 600" fill="none" xmlns="http://www.w3.org/2000/svg"><defs><pattern id="dots" patternUnits="userSpaceOnUse" width="20" height="20"><circle cx="10" cy="10" r="1" fill="#3b82f6" opacity="0.3"/></pattern></defs><rect width="1200" height="600" fill="#f8fafc"/><rect x="0" y="0" width="400" height="600" fill="url(#dots)"/><rect x="400" y="0" width="800" height="600" fill="url(#dots)"/><path d="M400 50 Q500 150 600 300 T800 550" stroke="#1e40af" stroke-width="4" fill="none"/><g><rect x="450" y="100" width="8" height="12" fill="#6b7280"/><rect x="550" y="200" width="8" height="12" fill="#6b7280"/><rect x="650" y="300" width="8" height="12" fill="#6b7280"/><rect x="750" y="400" width="8" height="12" fill="#6b7280"/></g><g><polygon points="500,150 510,170 490,170" fill="#ef4444"/><polygon points="700,250 710,270 690,270" fill="#ef4444"/><polygon points="600,350 610,370 590,370" fill="#ef4444"/></g><g><circle cx="500" cy="200" r="4" fill="#3b82f6"/><circle cx="700" cy="300" r="4" fill="#3b82f6"/><circle cx="600" cy="400" r="4" fill="#3b82f6"/></g><path d="M0 550 Q200 530 400 550 T800 570 L1200 550 L1200 600 L0 600 Z" fill="#1e40af" opacity="0.4"/><path d="M0 0 Q200 20 400 0 T800 -20 L1200 0 L1200 50 L0 50 Z" fill="#1e40af" opacity="0.4"/><text x="200" y="50" fill="#1e293b" font-size="24" font-weight="bold">BURMA</text><text x="800" y="50" fill="#1e293b" font-size="24" font-weight="bold">THAILAND</text><text x="200" y="580" fill="#1e293b" font-size="16">Andaman Sea</text><text x="800" y="580" fill="#1e293b" font-size="16">Gulf of THAILAND</text></svg>
